<svg xmlns="http://www.w3.org/2000/svg" xmlns:xlink="http://www.w3.org/1999/xlink" width="500" zoomAndPan="magnify" viewBox="0 0 375 374.999991" height="500" preserveAspectRatio="xMidYMid meet" version="1.0"><defs><clipPath id="2828f1084b"><path d="M 166.554688 137.554688 L 208.382812 137.554688 L 208.382812 174.101562 L 166.554688 174.101562 Z M 166.554688 137.554688 " clip-rule="nonzero"/></clipPath><clipPath id="5c5b3bb155"><path d="M 187.5 174.101562 L 166.617188 137.554688 L 208.382812 137.554688 Z M 187.5 174.101562 " clip-rule="nonzero"/></clipPath><clipPath id="7cbb281da8"><path d="M 0.558594 0.554688 L 42.382812 0.554688 L 42.382812 37.101562 L 0.558594 37.101562 Z M 0.558594 0.554688 " clip-rule="nonzero"/></clipPath><clipPath id="edfb8a163c"><path d="M 21.5 37.101562 L 0.617188 0.554688 L 42.382812 0.554688 Z M 21.5 37.101562 " clip-rule="nonzero"/></clipPath><clipPath id="3383c8bfcd"><rect x="0" width="43" y="0" height="38"/></clipPath><clipPath id="e5db2b3465"><path d="M 166.554688 119.285156 L 208.382812 119.285156 L 208.382812 155.828125 L 166.554688 155.828125 Z M 166.554688 119.285156 " clip-rule="nonzero"/></clipPath><clipPath id="31e113190c"><path d="M 187.5 155.828125 L 166.617188 119.285156 L 208.382812 119.285156 Z M 187.5 155.828125 " clip-rule="nonzero"/></clipPath><clipPath id="64155d2637"><path d="M 0.558594 0.285156 L 42.382812 0.285156 L 42.382812 36.828125 L 0.558594 36.828125 Z M 0.558594 0.285156 " clip-rule="nonzero"/></clipPath><clipPath id="497a204a22"><path d="M 21.5 36.828125 L 0.617188 0.285156 L 42.382812 0.285156 Z M 21.5 36.828125 " clip-rule="nonzero"/></clipPath><clipPath id="75c9abafa7"><rect x="0" width="43" y="0" height="37"/></clipPath><clipPath id="7c199c849b"><path d="M 193.957031 166.550781 L 230.503906 166.550781 L 230.503906 208.378906 L 193.957031 208.378906 Z M 193.957031 166.550781 " clip-rule="nonzero"/></clipPath><clipPath id="f91a264b12"><path d="M 193.957031 187.496094 L 230.503906 166.613281 L 230.503906 208.378906 Z M 193.957031 187.496094 " clip-rule="nonzero"/></clipPath><clipPath id="539d45325d"><path d="M 0.957031 0.558594 L 37.503906 0.558594 L 37.503906 42.378906 L 0.957031 42.378906 Z M 0.957031 0.558594 " clip-rule="nonzero"/></clipPath><clipPath id="d3a3957db8"><path d="M 0.957031 21.496094 L 37.503906 0.613281 L 37.503906 42.378906 Z M 0.957031 21.496094 " clip-rule="nonzero"/></clipPath><clipPath id="2b61fe1ee3"><rect x="0" width="38" y="0" height="43"/></clipPath><clipPath id="2c299365aa"><path d="M 212.230469 166.550781 L 248.777344 166.550781 L 248.777344 208.378906 L 212.230469 208.378906 Z M 212.230469 166.550781 " clip-rule="nonzero"/></clipPath><clipPath id="d81ee6971d"><path d="M 212.230469 187.496094 L 248.777344 166.613281 L 248.777344 208.378906 Z M 212.230469 187.496094 " clip-rule="nonzero"/></clipPath><clipPath id="330c862278"><path d="M 0.230469 0.558594 L 36.777344 0.558594 L 36.777344 42.378906 L 0.230469 42.378906 Z M 0.230469 0.558594 " clip-rule="nonzero"/></clipPath><clipPath id="44036da12b"><path d="M 0.230469 21.496094 L 36.777344 0.613281 L 36.777344 42.378906 Z M 0.230469 21.496094 " clip-rule="nonzero"/></clipPath><clipPath id="5c38a0e8cf"><rect x="0" width="37" y="0" height="43"/></clipPath><clipPath id="9430182cb3"><path d="M 166.617188 194.894531 L 208.445312 194.894531 L 208.445312 231.441406 L 166.617188 231.441406 Z M 166.617188 194.894531 " clip-rule="nonzero"/></clipPath><clipPath id="37980d23e0"><path d="M 187.5 194.894531 L 208.382812 231.441406 L 166.617188 231.441406 Z M 187.5 194.894531 " clip-rule="nonzero"/></clipPath><clipPath id="78d17d04bd"><path d="M 0.617188 0.894531 L 42.445312 0.894531 L 42.445312 37.441406 L 0.617188 37.441406 Z M 0.617188 0.894531 " clip-rule="nonzero"/></clipPath><clipPath id="d9ba271763"><path d="M 21.5 0.894531 L 42.382812 37.441406 L 0.617188 37.441406 Z M 21.5 0.894531 " clip-rule="nonzero"/></clipPath><clipPath id="fa347765b2"><rect x="0" width="43" y="0" height="38"/></clipPath><clipPath id="00a5d14010"><path d="M 166.617188 213.167969 L 208.445312 213.167969 L 208.445312 249.714844 L 166.617188 249.714844 Z M 166.617188 213.167969 " clip-rule="nonzero"/></clipPath><clipPath id="c97d7a18bb"><path d="M 187.5 213.167969 L 208.382812 249.714844 L 166.617188 249.714844 Z M 187.5 213.167969 " clip-rule="nonzero"/></clipPath><clipPath id="e40ff0825a"><path d="M 0.617188 0.167969 L 42.445312 0.167969 L 42.445312 36.714844 L 0.617188 36.714844 Z M 0.617188 0.167969 " clip-rule="nonzero"/></clipPath><clipPath id="069861645c"><path d="M 21.5 0.167969 L 42.382812 36.714844 L 0.617188 36.714844 Z M 21.5 0.167969 " clip-rule="nonzero"/></clipPath><clipPath id="92b632125d"><rect x="0" width="43" y="0" height="37"/></clipPath><clipPath id="ebf0227406"><path d="M 142.339844 166.613281 L 178.882812 166.613281 L 178.882812 208.441406 L 142.339844 208.441406 Z M 142.339844 166.613281 " clip-rule="nonzero"/></clipPath><clipPath id="f3be4694d0"><path d="M 178.882812 187.496094 L 142.339844 208.378906 L 142.339844 166.613281 Z M 178.882812 187.496094 " clip-rule="nonzero"/></clipPath><clipPath id="3a21700135"><path d="M 0.339844 0.613281 L 36.882812 0.613281 L 36.882812 42.441406 L 0.339844 42.441406 Z M 0.339844 0.613281 " clip-rule="nonzero"/></clipPath><clipPath id="d052b0e14b"><path d="M 36.882812 21.496094 L 0.339844 42.378906 L 0.339844 0.613281 Z M 36.882812 21.496094 " clip-rule="nonzero"/></clipPath><clipPath id="3e7a97a019"><rect x="0" width="37" y="0" height="43"/></clipPath><clipPath id="926f7fb294"><path d="M 124.066406 166.613281 L 160.609375 166.613281 L 160.609375 208.441406 L 124.066406 208.441406 Z M 124.066406 166.613281 " clip-rule="nonzero"/></clipPath><clipPath id="d382d99c78"><path d="M 160.609375 187.496094 L 124.066406 208.378906 L 124.066406 166.613281 Z M 160.609375 187.496094 " clip-rule="nonzero"/></clipPath><clipPath id="5b4aa3c2f5"><path d="M 0.0664062 0.613281 L 36.609375 0.613281 L 36.609375 42.441406 L 0.0664062 42.441406 Z M 0.0664062 0.613281 " clip-rule="nonzero"/></clipPath><clipPath id="11bc752d86"><path d="M 36.609375 21.496094 L 0.0664062 42.378906 L 0.0664062 0.613281 Z M 36.609375 21.496094 " clip-rule="nonzero"/></clipPath><clipPath id="236ea37536"><rect x="0" width="37" y="0" height="43"/></clipPath></defs><g clip-path="url(#2828f1084b)"><g clip-path="url(#5c5b3bb155)"><g transform="matrix(1, 0, 0, 1, 166, 137)"><g clip-path="url(#3383c8bfcd)"><g clip-path="url(#7cbb281da8)"><g clip-path="url(#edfb8a163c)"><path fill="#000000" d="M 42.382812 37.101562 L 0.554688 37.101562 L 0.554688 0.554688 L 42.382812 0.554688 Z M 42.382812 37.101562 " fill-opacity="1" fill-rule="nonzero"/></g></g></g></g></g></g><g clip-path="url(#e5db2b3465)"><g clip-path="url(#31e113190c)"><g transform="matrix(1, 0, 0, 1, 166, 119)"><g clip-path="url(#75c9abafa7)"><g clip-path="url(#64155d2637)"><g clip-path="url(#497a204a22)"><path fill="#ffffff" d="M 42.382812 36.828125 L 0.554688 36.828125 L 0.554688 0.285156 L 42.382812 0.285156 Z M 42.382812 36.828125 " fill-opacity="1" fill-rule="nonzero"/></g></g></g></g></g></g><g clip-path="url(#7c199c849b)"><g clip-path="url(#f91a264b12)"><g transform="matrix(1, 0, 0, 1, 193, 166)"><g clip-path="url(#2b61fe1ee3)"><g clip-path="url(#539d45325d)"><g clip-path="url(#d3a3957db8)"><path fill="#000000" d="M 0.957031 42.378906 L 0.957031 0.550781 L 37.503906 0.550781 L 37.503906 42.378906 Z M 0.957031 42.378906 " fill-opacity="1" fill-rule="nonzero"/></g></g></g></g></g></g><g clip-path="url(#2c299365aa)"><g clip-path="url(#d81ee6971d)"><g transform="matrix(1, 0, 0, 1, 212, 166)"><g clip-path="url(#5c38a0e8cf)"><g clip-path="url(#330c862278)"><g clip-path="url(#44036da12b)"><path fill="#ffffff" d="M 0.230469 42.378906 L 0.230469 0.550781 L 36.777344 0.550781 L 36.777344 42.378906 Z M 0.230469 42.378906 " fill-opacity="1" fill-rule="nonzero"/></g></g></g></g></g></g><g clip-path="url(#9430182cb3)"><g clip-path="url(#37980d23e0)"><g transform="matrix(1, 0, 0, 1, 166, 194)"><g clip-path="url(#fa347765b2)"><g clip-path="url(#78d17d04bd)"><g clip-path="url(#d9ba271763)"><path fill="#000000" d="M 0.617188 0.894531 L 42.445312 0.894531 L 42.445312 37.441406 L 0.617188 37.441406 Z M 0.617188 0.894531 " fill-opacity="1" fill-rule="nonzero"/></g></g></g></g></g></g><g clip-path="url(#00a5d14010)"><g clip-path="url(#c97d7a18bb)"><g transform="matrix(1, 0, 0, 1, 166, 213)"><g clip-path="url(#92b632125d)"><g clip-path="url(#e40ff0825a)"><g clip-path="url(#069861645c)"><path fill="#ffffff" d="M 0.617188 0.167969 L 42.445312 0.167969 L 42.445312 36.714844 L 0.617188 36.714844 Z M 0.617188 0.167969 " fill-opacity="1" fill-rule="nonzero"/></g></g></g></g></g></g><g clip-path="url(#ebf0227406)"><g clip-path="url(#f3be4694d0)"><g transform="matrix(1, 0, 0, 1, 142, 166)"><g clip-path="url(#3e7a97a019)"><g clip-path="url(#3a21700135)"><g clip-path="url(#d052b0e14b)"><path fill="#000000" d="M 36.882812 0.613281 L 36.882812 42.441406 L 0.339844 42.441406 L 0.339844 0.613281 Z M 36.882812 0.613281 " fill-opacity="1" fill-rule="nonzero"/></g></g></g></g></g></g><g clip-path="url(#926f7fb294)"><g clip-path="url(#d382d99c78)"><g transform="matrix(1, 0, 0, 1, 124, 166)"><g clip-path="url(#236ea37536)"><g clip-path="url(#5b4aa3c2f5)"><g clip-path="url(#11bc752d86)"><path fill="#ffffff" d="M 36.609375 0.613281 L 36.609375 42.441406 L 0.0664062 42.441406 L 0.0664062 0.613281 Z M 36.609375 0.613281 " fill-opacity="1" fill-rule="nonzero"/></g></g></g></g></g></g></svg>